<svg width="189" height="46" viewBox="0 0 189 46" fill="none" xmlns="http://www.w3.org/2000/svg">
<path fill-rule="evenodd" clip-rule="evenodd" d="M4.66513 41.11H12.1951L15.418 38.92L18.2926 41.83L13.2695 45.47H0V0H13.6275L28.3293 12.73L22.948 18.19L19.7252 15.64L21.8736 13.1L11.1208 4.37H4.66513V41.11ZM30.1198 28.74L25.8226 33.1L22.948 30.56L24.7482 28.74L11.1208 17.1L15.418 12.37L18.2926 14.92L16.4924 16.73L30.1198 28.74ZM27.9713 0L23.306 4L26.5388 7.28L29.7616 4.37H36.2173V41.11H29.7616L18.6508 30.92L21.1575 28.37L17.5665 25.46L12.1951 31.29L27.9713 45.47H41.2406V0H27.9713ZM81.9137 0.199951H88.5137V34.9399C88.5137 36.5399 88.7537 37.56 89.2337 38C89.7137 38.44 90.3137 38.66 91.0337 38.66C91.8337 38.66 92.5937 38.58 93.3137 38.42C94.0337 38.26 94.6337 38.06 95.1137 37.82L96.0737 43.04C95.1137 43.44 93.9737 43.78 92.6537 44.06C91.3337 44.34 90.1537 44.4799 89.1137 44.4799C86.8737 44.4799 85.1137 43.86 83.8337 42.6199C82.5537 41.34 81.9137 39.58 81.9137 37.34V0.199951ZM61.0599 44.6C57.7799 44.6 54.9199 43.86 52.4799 42.38C50.0799 40.86 48.2199 38.8799 46.8999 36.4399C45.5799 33.9599 44.9199 31.26 44.9199 28.34C44.9199 25.42 45.5799 22.74 46.8999 20.3C48.2599 17.82 50.1399 15.84 52.5399 14.36C54.9799 12.84 57.8199 12.08 61.0599 12.08C64.2999 12.08 67.1199 12.84 69.5199 14.36C71.9599 15.84 73.8399 17.82 75.1599 20.3C76.5199 22.74 77.1999 25.42 77.1999 28.34C77.1999 31.26 76.5399 33.9599 75.2199 36.4399C73.8999 38.8799 72.0199 40.86 69.5799 42.38C67.1799 43.86 64.3399 44.6 61.0599 44.6ZM51.6999 28.4C51.6999 30.4 52.1199 32.2 52.9599 33.7999C53.7999 35.3999 54.9199 36.66 56.3199 37.5799C57.7199 38.4999 59.2999 38.96 61.0599 38.96C62.7799 38.96 64.3399 38.4999 65.7399 37.5799C67.1799 36.6199 68.3199 35.34 69.1599 33.74C69.9999 32.14 70.4199 30.34 70.4199 28.34C70.4199 26.34 69.9999 24.54 69.1599 22.94C68.3199 21.34 67.1799 20.08 65.7399 19.16C64.3399 18.2 62.7799 17.72 61.0599 17.72C59.3399 17.72 57.7599 18.2 56.3199 19.16C54.9199 20.08 53.7999 21.36 52.9599 23C52.1199 24.6 51.6999 26.4 51.6999 28.4ZM98.5205 20.18C97.3205 22.62 96.7205 25.34 96.7205 28.34C96.7205 31.3 97.3605 34.02 98.6405 36.5C99.9205 38.94 101.681 40.9 103.921 42.38C106.201 43.86 108.781 44.6 111.661 44.6C113.861 44.6 115.981 44.06 118.021 42.9799C120.061 41.86 121.681 40.2999 122.881 38.2999L122.941 40.64C122.981 41.68 123.421 42.56 124.261 43.28C125.141 43.96 126.201 44.2999 127.441 44.2999C128.121 44.2999 129.081 44.2 130.321 44V38.72C129.681 38.68 129.221 38.5 128.941 38.18C128.661 37.86 128.521 37.32 128.521 36.56V0.199951H121.921V18.5599C120.841 16.7199 119.321 15.1799 117.361 13.9399C115.441 12.7 113.281 12.08 110.881 12.08C108.121 12.08 105.681 12.82 103.561 14.2999C101.441 15.74 99.7605 17.7 98.5205 20.18ZM121.921 24.5V32.72C121.601 33.92 120.981 35 120.061 35.96C119.141 36.88 118.061 37.62 116.821 38.18C115.621 38.7 114.461 38.96 113.341 38.96C111.501 38.96 109.841 38.4999 108.361 37.5799C106.881 36.6199 105.701 35.34 104.821 33.74C103.981 32.14 103.561 30.38 103.561 28.46C103.561 26.62 103.941 24.88 104.701 23.24C105.501 21.5999 106.581 20.28 107.941 19.28C109.341 18.24 110.981 17.72 112.861 17.72C114.061 17.72 115.261 18.02 116.461 18.62C117.701 19.22 118.801 20.04 119.761 21.08C120.721 22.08 121.441 23.22 121.921 24.5ZM149.804 44.6C146.524 44.6 143.664 43.86 141.224 42.38C138.824 40.86 136.964 38.8799 135.644 36.4399C134.324 33.9599 133.664 31.26 133.664 28.34C133.664 25.42 134.324 22.74 135.644 20.3C137.004 17.82 138.884 15.84 141.284 14.36C143.724 12.84 146.564 12.08 149.804 12.08C153.044 12.08 155.864 12.84 158.264 14.36C160.704 15.84 162.584 17.82 163.904 20.3C165.264 22.74 165.944 25.42 165.944 28.34C165.944 31.26 165.284 33.9599 163.964 36.4399C162.644 38.8799 160.764 40.86 158.324 42.38C155.924 43.86 153.084 44.6 149.804 44.6ZM140.444 28.4C140.444 30.4 140.864 32.2 141.704 33.7999C142.544 35.3999 143.664 36.66 145.064 37.5799C146.464 38.4999 148.044 38.96 149.804 38.96C151.524 38.96 153.084 38.4999 154.484 37.5799C155.924 36.6199 157.064 35.34 157.904 33.74C158.744 32.14 159.164 30.34 159.164 28.34C159.164 26.34 158.744 24.54 157.904 22.94C157.064 21.34 155.924 20.08 154.484 19.16C153.084 18.2 151.524 17.72 149.804 17.72C148.084 17.72 146.504 18.2 145.064 19.16C143.664 20.08 142.544 21.36 141.704 23C140.864 24.6 140.444 26.4 140.444 28.4ZM181.397 20.12C183.397 19 185.677 18.4 188.237 18.32V12.38C188.037 12.34 187.797 12.32 187.517 12.32H186.557C184.597 12.44 182.737 13.16 180.977 14.48C179.217 15.76 177.797 17.48 176.717 19.64V12.62H170.597V44H177.197V24.8C178.037 22.76 179.437 21.2 181.397 20.12Z" fill="#FFFFFF"/>
</svg>
